#!OML:ASF H:\Terrain\Patient Classification 1\Animal2\Wednesday\Animal2.ASF
:FULLY-SPECIFIED
:DEGREES
3031
root 8.91706 17.8382 -2.04939 1.72392 -41.5241 -361.662
lowerback 1.80042 -3.72701 2.75462
upperback -4.61936 -4.79187 2.08801
thorax -5.84742 -2.46288 0.964903
lowerneck 5.32481 9.31261 17.4781
upperneck 2.02312 13.8605 -20.6042
head 2.43166 7.11681 -8.90796
rclavicle -1.95803e-014 -1.59028e-014
rhumerus -31.0648 -5.24464 -83.6578
rradius 19.1645
rwrist 24.4901
rhand -14.279 8.86712
rfingers 7.12502
rthumb 11.8601 -20.777
lclavicle -1.95803e-014 -1.59028e-014
lhumerus -47.8859 -27.178 92.0574
lradius 40.0167
lwrist 49.5721
lhand -32.9336 53.4256
lfingers 7.12502
lthumb -6.15006 83.3163
rfemur -4.57598 -7.35379 24.1835
rtibia 24.5355
rfoot -20.0039 -13.2917
rtoes 4.21622
lfemur -6.29989 7.68795 -20.6921
ltibia 26.3107
lfoot -19.8446 15.1451
ltoes -21.969
3032
root 8.92215 17.8334 -2.0462 1.784 -41.6078 -361.915
lowerback 1.91861 -3.74878 2.91333
upperback -4.58869 -4.806 2.15138
thorax -5.89147 -2.47501 0.951755
lowerneck 5.24142 9.34823 17.3429
upperneck 2.04905 13.8856 -20.4251
head 2.43467 7.12315 -8.8187
rclavicle -7.0171e-014 -1.59028e-014
rhumerus -31.0241 -4.76972 -83.945
rradius 19.2955
rwrist 23.8768
rhand -14.4223 8.16281
rfingers 7.12502
rthumb 11.7219 -21.4892
lclavicle -7.0171e-014 -1.59028e-014
lhumerus -47.9131 -27.0744 92.0536
lradius 40.1511
lwrist 50.1887
lhand -31.8596 53.2764
lfingers 7.12502
lthumb -5.11315 83.1947
rfemur -4.42125 -7.31361 24.3687
rtibia 24.4814
rfoot -19.8532 -13.4314
rtoes 3.62461
lfemur -6.22246 7.73437 -20.4813
ltibia 26.4026
lfoot -19.9549 15.0974
ltoes -21.3511
3033
root 8.92486 17.8319 -2.03856 1.73427 -41.7511 -361.898
lowerback 1.93463 -3.73266 2.84636
upperback -4.56495 -4.78606 2.18245
thorax -5.86676 -2.46113 1.01896
lowerneck 5.20972 9.37326 17.171
upperneck 1.91839 13.8823 -20.2659
head 2.37748 7.12009 -8.73822
rclavicle 2.94201e-014 -6.36111e-015
rhumerus -31.0529 -5.2313 -83.5899
rradius 19.2725
rwrist 24.7687
rhand -14.2818 8.86848
rfingers 7.12502
rthumb 11.8573 -20.7758
lclavicle 2.94201e-014 -6.36111e-015
lhumerus -48.0658 -27.0918 92.3241
lradius 40.4101
lwrist 51.1825
lhand -31.8516 53.1082
lfingers 7.12502
lthumb -5.10541 83.0267
rfemur -4.38066 -7.34845 24.3062
rtibia 24.4927
rfoot -19.667 -13.4562
rtoes 2.52591
lfemur -6.1594 7.63445 -20.5491
ltibia 26.4345
lfoot -20.008 15.403
ltoes -21.7121
3034
root 8.92738 17.8336 -2.02999 1.61599 -41.9077 -361.774
lowerback 1.93061 -3.71837 2.73392
upperback -4.53293 -4.77391 2.16221
thorax -5.82235 -2.45016 1.05671
lowerneck 5.18577 9.37654 17.2527
upperneck 1.84782 13.8826 -20.3302
head 2.37236 7.12083 -8.77206
rclavicle -6.84813e-014 -2.14687e-014
rhumerus -31.0968 -5.53907 -83.3569
rradius 19.2981
rwrist 25.5107
rhand -14.2348 9.17975
rfingers 7.12502
rthumb 11.9027 -20.4619
lclavicle -6.84813e-014 -2.14687e-014
lhumerus -48.1944 -27.1153 92.5088
lradius 40.5736
lwrist 51.7399
lhand -32.2549 53.0642
lfingers 7.12502
lthumb -5.4948 82.9729
rfemur -4.38088 -7.42944 24.1349
rtibia 24.5543
rfoot -19.5803 -13.1854
rtoes 2.23266
lfemur -6.068 7.58944 -20.7044
ltibia 26.4043
lfoot -20.0001 15.7005
ltoes -22.9942
3035
root 8.93029 17.8328 -2.02308 1.51194 -42.0141 -361.689
lowerback 1.94498 -3.70959 2.70286
upperback -4.51435 -4.7661 2.09557
thorax -5.81385 -2.44611 1.00444
lowerneck 5.09486 9.33843 17.4211
upperneck 1.99657 13.849 -20.3952
head 2.44079 7.09899 -8.81622
rclavicle -1.85864e-014 1.59028e-014
rhumerus -31.141 -5.57439 -83.4391
rradius 19.2154
rwrist 25.2875
rhand -14.6749 8.73285
rfingers 7.12502
rthumb 11.4783 -20.9329
lclavicle -1.85864e-014 1.59028e-014
lhumerus -48.2507 -27.1453 92.4993
lradius 40.608
lwrist 51.7715
lhand -32.293 53.201
lfingers 7.12502
lthumb -5.53158 83.1088
rfemur -4.38235 -7.47019 24.0138
rtibia 24.639
rfoot -19.4952 -13.112
rtoes 1.58122
lfemur -5.95834 7.65325 -20.7976
ltibia 26.3357
lfoot -20.021 15.628
ltoes -23.032
3036
root 8.93234 17.8329 -2.01657 1.47844 -42.1025 -361.609
lowerback 1.91761 -3.69518 2.66024
upperback -4.53921 -4.75177 2.04822
thorax -5.82462 -2.43852 0.977178
lowerneck 5.14694 9.2997 17.3155
upperneck 2.05167 13.7984 -20.311
head 2.42362 7.07461 -8.77831
rclavicle 3.46879e-014 -1.43125e-014
rhumerus -31.2237 -5.45268 -83.6286
rradius 19.1044
rwrist 24.5032
rhand -15.351 8.41671
rfingers 7.12502
rthumb 10.8262 -21.2843
lclavicle 3.46879e-014 -1.43125e-014
lhumerus -48.3316 -27.1736 92.5695
lradius 40.6191
lwrist 51.8472
lhand -32.3879 53.1444
lfingers 7.12502
lthumb -5.62322 83.0498
rfemur -4.4337 -7.46424 23.9235
rtibia 24.705
rfoot -19.5697 -13.1658
rtoes 1.33616
lfemur -5.91863 7.61286 -20.9026
ltibia 26.2774
lfoot -20.0881 15.5604
ltoes -21.8637
3037
root 8.93426 17.8319 -2.01184 1.60417 -42.2202 -361.7
lowerback 1.87279 -3.67615 2.6925
upperback -4.57925 -4.72518 2.07578
thorax -5.84147 -2.42686 0.984796
lowerneck 5.1929 9.31464 17.1705
upperneck 2.1127 13.8192 -20.2125
head 2.41935 7.08473 -8.72252
rclavicle -2.29596e-014 -1.03368e-014
rhumerus -31.2726 -5.35668 -83.6575
rradius 19.1189
rwrist 24.4147
rhand -15.243 8.23108
rfingers 7.12502
rthumb 10.9304 -21.4644
lclavicle -2.29596e-014 -1.03368e-014
lhumerus -48.4251 -27.1072 92.6897
lradius 40.6065
lwrist 51.9502
lhand -32.3503 52.7352
lfingers 7.12502
lthumb -5.58697 82.6415
rfemur -4.51127 -7.40095 23.9962
rtibia 24.727
rfoot -19.7188 -13.0631
rtoes 1.8956
lfemur -5.95405 7.54967 -20.884
ltibia 26.263
lfoot -20.0625 15.7565
ltoes -21.4929
3038
root 8.93631 17.8304 -2.00311 1.74736 -42.3543 -361.802
lowerback 1.77485 -3.64721 2.79768
upperback -4.62018 -4.68637 2.0526
thorax -5.83923 -2.41375 0.895208
lowerneck 5.18236 9.29135 17.3742
upperneck 2.24298 13.8165 -20.2635
head 2.4764 7.08332 -8.77017
rclavicle 1.17184e-013 1.66979e-014
rhumerus -31.3574 -5.33746 -83.6944
rradius 19.3032
rwrist 24.7722
rhand -14.6124 7.56946
rfingers 7.12502
rthumb 11.5386 -22.0929
lclavicle 1.17184e-013 1.66979e-014
lhumerus -48.6264 -27.1705 92.8414
lradius 40.7402
lwrist 52.2777
lhand -33.1583 52.6765
lfingers 7.12502
lthumb -6.36702 82.5608
rfemur -4.59339 -7.28446 24.0532
rtibia 24.7396
rfoot -19.6962 -12.7807
rtoes 2.50399
lfemur -6.00216 7.55559 -20.864
ltibia 26.2637
lfoot -20.0457 15.9755
ltoes -21.8979
3039
root 8.93805 17.8317 -1.99094 1.87698 -42.5025 -361.907
lowerback 1.63897 -3.62116 2.92816
upperback -4.62968 -4.65329 2.0129
thorax -5.78552 -2.40463 0.770632
lowerneck 5.29152 9.21882 17.6608
upperneck 2.13152 13.7425 -20.4457
head 2.44595 7.05707 -8.89174
rclavicle 4.88016e-014 -3.73715e-014
rhumerus -31.4311 -5.16313 -83.9612
rradius 19.3507
rwrist 24.0883
rhand -14.5628 7.19889
rfingers 7.12502
rthumb 11.5864 -22.4608
lclavicle 4.88016e-014 -3.73715e-014
lhumerus -48.8444 -27.3244 93.0166
lradius 40.8895
lwrist 52.5245
lhand -34.2839 53.2026
lfingers 7.12502
lthumb -7.45358 83.0513
rfemur -4.65373 -7.16842 24.0879
rtibia 24.747
rfoot -19.6977 -12.5304
rtoes 3.32016
lfemur -6.02544 7.55511 -20.8391
ltibia 26.2774
lfoot -20.1416 16.0304
ltoes -21.4079
